<svg width="20" height="20" viewBox="0 0 20 20" fill="none" xmlns="http://www.w3.org/2000/svg">
				<path d="M10.0003 5.19983C7.893 5.19983 5.69021 5.19983 3.84363 5.52986C2.9585 5.68804 2.26121 6.36397 2.07119 7.24281C1.77173 8.62763 1.77173 9.91936 1.77173 11.8855C1.77173 13.8517 1.77173 15.1434 2.07119 16.5283C2.26121 17.4071 2.9585 18.083 3.84363 18.2413C5.69021 18.5713 7.893 18.5713 10.0003 18.5713C12.1076 18.5713 14.3104 18.5713 16.157 18.2413C17.0421 18.083 17.7394 17.4071 17.9294 16.5283C18.2288 15.1434 18.2288 13.8517 18.2288 11.8855C18.2288 9.91936 18.2288 8.62763 17.9294 7.24281C17.7394 6.36397 17.0421 5.68804 16.157 5.52986C14.3104 5.19983 12.1076 5.19983 10.0003 5.19983Z" stroke="#566676" stroke-width="1.5" stroke-linecap="round" stroke-linejoin="round"></path>
				<path d="M6.5708 5.20002V4.28573C6.5708 2.70777 7.84999 1.42859 9.42794 1.42859H10.5708C12.1488 1.42859 13.4279 2.70777 13.4279 4.28573V5.20002" stroke="#566676" stroke-width="1.5" stroke-linecap="round" stroke-linejoin="round"></path>
				<path d="M1.78149 10L9.10039 12.4432C9.68761 12.6393 10.3226 12.6393 10.9098 12.4432L18.2287 10" stroke="#566676" stroke-width="1.5" stroke-linecap="round" stroke-linejoin="round"></path>
				</svg>