<svg width="20" height="20" viewBox="0 0 20 20" fill="none" xmlns="http://www.w3.org/2000/svg">
					<path d="M12 16.5C12 16.697 12.0388 16.8921 12.1142 17.074C12.1895 17.256 12.3001 17.4214 12.4393 17.5607C12.5786 17.6999 12.744 17.8105 12.926 17.8858C13.1079 17.9612 13.303 18 13.5 18C13.697 18 13.8921 17.9612 14.074 17.8858C14.256 17.8105 14.4214 17.6999 14.5607 17.5607C14.6999 17.4214 14.8105 17.256 14.8858 17.074C14.9612 16.8921 15 16.697 15 16.5C15 16.303 14.9612 16.1079 14.8858 15.926C14.8105 15.744 14.6999 15.5786 14.5607 15.4393C14.4214 15.3001 14.256 15.1895 14.074 15.1142C13.8921 15.0388 13.697 15 13.5 15C13.303 15 13.1079 15.0388 12.926 15.1142C12.744 15.1895 12.5786 15.3001 12.4393 15.4393C12.3001 15.5786 12.1895 15.744 12.1142 15.926C12.0388 16.1079 12 16.303 12 16.5Z" stroke="#566676" stroke-width="1.3" stroke-linecap="round" stroke-linejoin="round"></path>
					<path d="M4 16.5C4 16.8978 4.15803 17.2793 4.43934 17.5607C4.72065 17.8419 5.10217 18 5.5 18C5.89783 18 6.27935 17.8419 6.56066 17.5607C6.84197 17.2793 7 16.8978 7 16.5C7 16.1022 6.84197 15.7207 6.56066 15.4393C6.27935 15.1581 5.89783 15 5.5 15C5.10217 15 4.72065 15.1581 4.43934 15.4393C4.15803 15.7207 4 16.1022 4 16.5Z" stroke="#566676" stroke-width="1.3" stroke-linecap="round" stroke-linejoin="round"></path>
					<path d="M12 17H7" stroke="#566676" stroke-width="1.3" stroke-linecap="round" stroke-linejoin="round"></path>
					<path d="M3.5048 17H2.2C1.88174 17 1.57651 16.8796 1.35147 16.6653C1.12643 16.451 1 16.1602 1 15.8571V14.7143C1 14.1081 1.25286 13.5267 1.70294 13.0981C2.15303 12.6694 2.76348 12.4286 3.4 12.4286L4.868 9.63162C4.9677 9.44175 5.12096 9.28213 5.31058 9.17059C5.50021 9.05897 5.71871 8.99992 5.9416 9H9.8616C10.0845 8.99992 10.303 9.05897 10.4926 9.17059C10.6822 9.28213 10.8355 9.44175 10.9352 9.63162L12.4 12.4286H16.6C17.2365 12.4286 17.847 12.6694 18.297 13.0981C18.7471 13.5267 19 14.1081 19 14.7143V15.8571C19 16.1602 18.8736 16.451 18.6486 16.6653C18.4235 16.8796 18.1182 17 17.8 17H15.296" stroke="#566676" stroke-width="1.3" stroke-linecap="round" stroke-linejoin="round"></path>
					<path d="M12 12H4" stroke="#566676" stroke-width="1.3" stroke-linecap="round" stroke-linejoin="round"></path>
					<path d="M12 12L15.6 9H18" stroke="#566676" stroke-width="1.3" stroke-linecap="round" stroke-linejoin="round"></path>
					<path d="M18.5 6C18.3357 5.82421 18.2063 5.61201 18.1204 5.3771C18.0344 5.1422 17.9936 4.88982 18.0008 4.6363C18.0008 3.72741 18.9992 3.27259 18.9992 2.3637C19.0063 2.11018 18.9657 1.8578 18.8797 1.6229C18.7937 1.38799 18.6643 1.17578 18.5 1" stroke="#566676" stroke-width="1.3" stroke-linecap="round" stroke-linejoin="round"></path>
					<path d="M14.5 7C14.3357 6.82421 14.2063 6.61201 14.1204 6.3771C14.0344 6.1422 13.9936 5.88982 14.0008 5.6363C14.0008 4.72741 14.9992 4.27259 14.9992 3.3637C15.0063 3.11018 14.9657 2.8578 14.8797 2.6229C14.7937 2.38799 14.6643 2.17579 14.5 2" stroke="#566676" stroke-width="1.3" stroke-linecap="round" stroke-linejoin="round"></path>
					</svg>