<svg width="20" height="20" viewBox="0 0 20 20" fill="none" xmlns="http://www.w3.org/2000/svg">
					<g clip-path="url(#clip0_1055_4099)">
						<path d="M11.6667 9.16667H12.5001C12.9421 9.16667 13.366 9.34226 13.6786 9.65482C13.9912 9.96738 14.1667 10.3913 14.1667 10.8333V13.3333C14.1667 13.6649 14.2984 13.9828 14.5329 14.2172C14.7673 14.4516 15.0852 14.5833 15.4167 14.5833C15.7483 14.5833 16.0662 14.4516 16.3006 14.2172C16.5351 13.9828 16.6667 13.6649 16.6667 13.3333V7.5L14.1667 5" stroke="#566676" stroke-width="1.5" stroke-linecap="round" stroke-linejoin="round"></path>
						<path d="M3.33325 16.6667V5.00004C3.33325 4.55801 3.50885 4.13409 3.82141 3.82153C4.13397 3.50897 4.55789 3.33337 4.99992 3.33337H9.99992C10.4419 3.33337 10.8659 3.50897 11.1784 3.82153C11.491 4.13409 11.6666 4.55801 11.6666 5.00004V16.6667" stroke="#566676" stroke-width="1.5" stroke-linecap="round" stroke-linejoin="round"></path>
						<path d="M2.5 16.6666H12.5" stroke="#566676" stroke-width="1.5" stroke-linecap="round" stroke-linejoin="round"></path>
						<path d="M15 5.83337V6.66671C15 6.88772 15.0878 7.09968 15.2441 7.25596C15.4004 7.41224 15.6123 7.50004 15.8333 7.50004H16.6667" stroke="#566676" stroke-width="1.5" stroke-linecap="round" stroke-linejoin="round"></path>
						<path d="M3.33325 9.16663H11.6666" stroke="#566676" stroke-width="1.5" stroke-linecap="round" stroke-linejoin="round"></path>
					</g>
					<defs>
						<clipPath id="clip0_1055_4099">
						<rect width="20" height="20" fill="white"></rect>
						</clipPath>
					</defs>
					</svg>