<svg width="20" height="20" viewBox="0 0 20 20" fill="none" xmlns="http://www.w3.org/2000/svg">
				<g clip-path="url(#clip0_1049_4515)">
					<path d="M2.5 5.00004C2.5 5.44207 2.67559 5.86599 2.98816 6.17855C3.30072 6.49111 3.72464 6.66671 4.16667 6.66671C4.60869 6.66671 5.03262 6.49111 5.34518 6.17855C5.65774 5.86599 5.83333 5.44207 5.83333 5.00004C5.83333 4.55801 5.65774 4.13409 5.34518 3.82153C5.03262 3.50897 4.60869 3.33337 4.16667 3.33337C3.72464 3.33337 3.30072 3.50897 2.98816 3.82153C2.67559 4.13409 2.5 4.55801 2.5 5.00004Z" stroke="#566676" stroke-width="1.5" stroke-linecap="round" stroke-linejoin="round"></path>
					<path d="M8.33325 5.00004C8.33325 5.44207 8.50885 5.86599 8.82141 6.17855C9.13397 6.49111 9.55789 6.66671 9.99992 6.66671C10.4419 6.66671 10.8659 6.49111 11.1784 6.17855C11.491 5.86599 11.6666 5.44207 11.6666 5.00004C11.6666 4.55801 11.491 4.13409 11.1784 3.82153C10.8659 3.50897 10.4419 3.33337 9.99992 3.33337C9.55789 3.33337 9.13397 3.50897 8.82141 3.82153C8.50885 4.13409 8.33325 4.55801 8.33325 5.00004Z" stroke="#566676" stroke-width="1.5" stroke-linecap="round" stroke-linejoin="round"></path>
					<path d="M14.1667 5.00004C14.1667 5.44207 14.3423 5.86599 14.6549 6.17855C14.9675 6.49111 15.3914 6.66671 15.8334 6.66671C16.2754 6.66671 16.6994 6.49111 17.0119 6.17855C17.3245 5.86599 17.5001 5.44207 17.5001 5.00004C17.5001 4.55801 17.3245 4.13409 17.0119 3.82153C16.6994 3.50897 16.2754 3.33337 15.8334 3.33337C15.3914 3.33337 14.9675 3.50897 14.6549 3.82153C14.3423 4.13409 14.1667 4.55801 14.1667 5.00004Z" stroke="#566676" stroke-width="1.5" stroke-linecap="round" stroke-linejoin="round"></path>
					<path d="M2.5 15C2.5 15.4421 2.67559 15.866 2.98816 16.1786C3.30072 16.4911 3.72464 16.6667 4.16667 16.6667C4.60869 16.6667 5.03262 16.4911 5.34518 16.1786C5.65774 15.866 5.83333 15.4421 5.83333 15C5.83333 14.558 5.65774 14.1341 5.34518 13.8215C5.03262 13.509 4.60869 13.3334 4.16667 13.3334C3.72464 13.3334 3.30072 13.509 2.98816 13.8215C2.67559 14.1341 2.5 14.558 2.5 15Z" stroke="#566676" stroke-width="1.5" stroke-linecap="round" stroke-linejoin="round"></path>
					<path d="M8.33325 15C8.33325 15.4421 8.50885 15.866 8.82141 16.1786C9.13397 16.4911 9.55789 16.6667 9.99992 16.6667C10.4419 16.6667 10.8659 16.4911 11.1784 16.1786C11.491 15.866 11.6666 15.4421 11.6666 15C11.6666 14.558 11.491 14.1341 11.1784 13.8215C10.8659 13.509 10.4419 13.3334 9.99992 13.3334C9.55789 13.3334 9.13397 13.509 8.82141 13.8215C8.50885 14.1341 8.33325 14.558 8.33325 15Z" stroke="#566676" stroke-width="1.5" stroke-linecap="round" stroke-linejoin="round"></path>
					<path d="M4.16675 6.66663V13.3333" stroke="#566676" stroke-width="1.5" stroke-linecap="round" stroke-linejoin="round"></path>
					<path d="M10 6.66663V13.3333" stroke="#566676" stroke-width="1.5" stroke-linecap="round" stroke-linejoin="round"></path>
					<path d="M15.8334 6.66663V8.33329C15.8334 8.77532 15.6578 9.19924 15.3453 9.5118C15.0327 9.82436 14.6088 9.99996 14.1667 9.99996H4.16675" stroke="#566676" stroke-width="1.5" stroke-linecap="round" stroke-linejoin="round"></path>
				</g>
				<defs>
					<clipPath id="clip0_1049_4515">
					<rect width="20" height="20" fill="white"></rect>
					</clipPath>
				</defs>
				</svg>