<svg width="20" height="20" viewBox="0 0 20 20" fill="none" xmlns="http://www.w3.org/2000/svg">
					<g clip-path="url(#clip0_1049_4385)">
						<path d="M9.375 12.5L16.875 5" stroke="#566676" stroke-width="1.5" stroke-linecap="round" stroke-linejoin="round"></path>
						<path d="M4.40937 12.5C4.38648 12.2925 4.37501 12.0838 4.375 11.875C4.37576 10.9823 4.58879 10.1026 4.99652 9.30849C5.40425 8.51435 5.99499 7.82856 6.71999 7.3077C7.44498 6.78685 8.28345 6.44588 9.16618 6.31292C10.0489 6.17996 10.9506 6.25882 11.7969 6.54301" stroke="#566676" stroke-width="1.5" stroke-linecap="round" stroke-linejoin="round"></path>
						<path d="M17.236 8.17496C17.7371 9.15824 18.0335 10.233 18.1071 11.3342C18.1807 12.4353 18.03 13.54 17.6641 14.5812C17.6214 14.7039 17.5415 14.8103 17.4355 14.8855C17.3295 14.9607 17.2027 15.001 17.0727 15.0007H2.92661C2.79641 15.0002 2.66959 14.9592 2.56366 14.8835C2.45773 14.8078 2.37791 14.7011 2.33521 14.5781C2.02273 13.6896 1.86703 12.7535 1.87505 11.8117C1.90943 7.34371 5.60396 3.71011 10.0782 3.74996C11.3392 3.76008 12.5805 4.06452 13.7032 4.63902" stroke="#566676" stroke-width="1.5" stroke-linecap="round" stroke-linejoin="round"></path>
					</g>
					<defs>
						<clipPath id="clip0_1049_4385">
						<rect width="20" height="20" fill="white"></rect>
						</clipPath>
					</defs>
					</svg>