<?xml version="1.0" encoding="UTF-8"?><svg id="objects" xmlns="http://www.w3.org/2000/svg" viewBox="0 0 1670.43 1670.43"><defs><style>.cls-1{fill:#4f4f4f;}</style></defs><path class="cls-1" d="M835.21,0C373.93,0,0,373.93,0,835.21s373.93,835.21,835.21,835.21,835.21-373.93,835.21-835.21S1296.49,0,835.21,0ZM835.21,1557.03c-398.65,0-721.82-323.17-721.82-721.82S436.56,113.39,835.21,113.39s721.82,323.17,721.82,721.82-323.17,721.82-721.82,721.82Z"/><path class="cls-1" d="M865.46,381.79v343.59c-9.63-2.65-19.78-4.06-30.24-4.06s-20.61,1.41-30.24,4.06v-343.59c0-16.7,13.54-30.24,30.24-30.24,8.35,0,15.91,3.38,21.38,8.86,5.47,5.48,8.86,13.03,8.86,21.38Z"/><path class="cls-1" d="M1173.99,719.85c0,11.86-7.35,23-19.15,27.26l-206.4,75.81c-2.15-20.06-9.51-38.56-20.71-54.12l207.45-76.2c15.05-5.42,31.65,2.38,37.08,17.42,1.18,3.25,1.73,6.57,1.73,9.83Z"/><circle class="cls-1" cx="835.21" cy="835.21" r="66.15"/><path class="cls-1" d="M835.21,250.92c11.81,0,21.41-9.61,21.41-21.41v-64.09c0-11.81-9.61-21.41-21.41-21.41s-21.41,9.61-21.41,21.41v64.09c0,11.81,9.61,21.41,21.41,21.41Z"/><path class="cls-1" d="M231.43,814.15h-64.1c-11.81,0-21.41,9.61-21.41,21.41s9.61,21.41,21.41,21.41h64.1c11.81,0,21.41-9.61,21.41-21.41s-9.61-21.41-21.41-21.41Z"/><path class="cls-1" d="M837.49,1417.94c-11.81,0-21.41,9.61-21.41,21.41v64.09c0,11.81,9.61,21.41,21.41,21.41s21.41-9.61,21.41-21.41v-64.09c0-11.81-9.61-21.41-21.41-21.41Z"/><path class="cls-1" d="M1505.37,811.88h-64.1c-11.81,0-21.41,9.61-21.41,21.41s9.61,21.41,21.41,21.41h64.1c11.81,0,21.41-9.61,21.41-21.41s-9.61-21.41-21.41-21.41Z"/></svg>